HIERARCHY
ROOT joint_Root
{
	OFFSET 0.0 0.0 0.0
	CHANNELS 6 Xposition Yposition Zposition Zrotation Xrotation Yrotation 
	JOINT Hips
	{
		OFFSET 4.5925 91.4895 -427.239
		CHANNELS 6 Xposition Yposition Zposition Zrotation Xrotation Yrotation 
		JOINT Spine
		{
			OFFSET 15.7357 0.0 0.0
			CHANNELS 6 Xposition Yposition Zposition Zrotation Xrotation Yrotation 
			JOINT Chest
			{
				OFFSET 8.98455 -0.406207 0.0
				CHANNELS 6 Xposition Yposition Zposition Zrotation Xrotation Yrotation 
				JOINT Neck
				{
					OFFSET 16.3773 0.0 0.0
					CHANNELS 6 Xposition Yposition Zposition Zrotation Xrotation Yrotation 
					JOINT Head
					{
						OFFSET 6.45672 0.0 0.0
						CHANNELS 6 Xposition Yposition Zposition Zrotation Xrotation Yrotation 
						End Site
						{
							OFFSET 0.0 0.0 0.0
						}
					}
				}
				JOINT Shoulder_L
				{
					OFFSET 12.9942 -0.242716 4.98039
					CHANNELS 6 Xposition Yposition Zposition Zrotation Xrotation Yrotation 
					JOINT UpperArm_L
					{
						OFFSET 5.34809 0.0 0.0
						CHANNELS 6 Xposition Yposition Zposition Zrotation Xrotation Yrotation 
						JOINT LowerArm_L
						{
							OFFSET 24.3286 1.87007e-05 0.0
							CHANNELS 6 Xposition Yposition Zposition Zrotation Xrotation Yrotation 
							JOINT Hand_L
							{
								OFFSET 22.2916 0.0 0.0
								CHANNELS 6 Xposition Yposition Zposition Zrotation Xrotation Yrotation 
								End Site
								{
									OFFSET 0.0 0.0 0.0
								}
							}
						}
					}
				}
				JOINT Shoulder_R
				{
					OFFSET 12.9945 -0.242716 -4.98039
					CHANNELS 6 Xposition Yposition Zposition Zrotation Xrotation Yrotation 
					JOINT UpperArm_R
					{
						OFFSET -5.34813 0.0 0.0
						CHANNELS 6 Xposition Yposition Zposition Zrotation Xrotation Yrotation 
						JOINT LowerArm_R
						{
							OFFSET -24.3289 0.000322201 0.0
							CHANNELS 6 Xposition Yposition Zposition Zrotation Xrotation Yrotation 
							JOINT Hand_R
							{
								OFFSET -22.2915 -0.000108084 0.0
								CHANNELS 6 Xposition Yposition Zposition Zrotation Xrotation Yrotation 
								End Site
								{
									OFFSET 0.0 0.0 0.0
								}
							}
						}
					}
				}
			}
		}
		JOINT UpperLeg_L
		{
			OFFSET -2.19248 -6.46944 0.0
			CHANNELS 6 Xposition Yposition Zposition Zrotation Xrotation Yrotation 
			JOINT LowerLeg_L
			{
				OFFSET 39.0811 0.0 -1.23785e-05
				CHANNELS 6 Xposition Yposition Zposition Zrotation Xrotation Yrotation 
				JOINT Foot_L
				{
					OFFSET 40.9854 0.0 -1.26872e-05
					CHANNELS 6 Xposition Yposition Zposition Zrotation Xrotation Yrotation 
					JOINT Toes_L
					{
						OFFSET 11.7543 0.0 0.0
						CHANNELS 6 Xposition Yposition Zposition Zrotation Xrotation Yrotation 
						End Site
						{
							OFFSET 0.0 0.0 0.0
						}
					}
				}
			}
		}
		JOINT UpperLeg_R
		{
			OFFSET -2.19251 6.46944 0.0
			CHANNELS 6 Xposition Yposition Zposition Zrotation Xrotation Yrotation 
			JOINT LowerLeg_R
			{
				OFFSET -39.0811 -0.00228153 -0.0401928
				CHANNELS 6 Xposition Yposition Zposition Zrotation Xrotation Yrotation 
				JOINT Foot_R
				{
					OFFSET -40.9854 0.0 0.0
					CHANNELS 6 Xposition Yposition Zposition Zrotation Xrotation Yrotation 
					JOINT Toes_R
					{
						OFFSET -11.7543 0.0 0.0
						CHANNELS 6 Xposition Yposition Zposition Zrotation Xrotation Yrotation 
						End Site
						{
							OFFSET 0.0 0.0 0.0
						}
					}
				}
			}
		}
	}
}
MOTION
Frames:	5
Frame Time:	0.0333333
0.000000 0.000000 0.000000 0.000000 0.000000 -0.000000 139.304000 92.127100 118.356000 98.944100 -39.021400 3.647640 15.735700 0.000005 -0.000001 104.467000 84.176100 -105.600000 8.984550 -0.406207 -0.000000 3.546520 2.947990 -2.354450 16.377300 -0.000001 -0.000001 2.856260 -19.428100 7.349140 6.456720 -0.000001 -0.000000 -0.663479 -28.265100 5.210190 12.994200 -0.242716 4.980390 -89.161800 -1.990680 -67.173800 5.348090 -0.000007 -0.000001 -61.631900 46.765500 20.765100 24.328600 0.000019 0.000005 12.244300 7.017480 -60.623100 22.291600 -0.000001 0.000005 0.154567 5.594340 -11.009600 12.994500 -0.242716 -4.980390 89.579400 1.853090 -77.215100 -5.348130 -0.000001 -0.000004 -37.838500 46.088300 -63.383600 -24.328900 0.000322 -0.000009 -1.709300 0.810077 -115.356000 -22.291500 -0.000108 -0.000004 15.400700 5.538820 -8.185220 -2.192480 -6.469440 -0.000000 -178.905000 -2.536990 -23.568000 39.081100 -0.000007 -0.000012 -0.072924 0.038578 62.123300 40.985400 -0.000006 -0.000013 12.744100 -17.741400 -55.360200 11.754300 -0.000000 0.000003 -0.007105 -0.080570 -19.856800 -2.192510 6.469440 -0.000001 -176.524000 3.230660 177.096000 -39.081100 -0.002282 -0.040193 0.044844 -0.082954 26.597200 -40.985400 0.000008 0.000006 26.086500 12.677300 -66.111100 -11.754300 -0.000006 -0.000006 -0.036344 -0.245193 -26.635200
0.000000 0.000000 0.000000 0.000000 0.000000 -0.000000 138.243000 93.330500 122.213000 98.890100 -44.887900 3.461480 15.735700 0.000005 -0.000001 115.013000 83.716800 -116.234000 8.984550 -0.406207 -0.000000 3.693640 5.349860 -2.614720 16.377300 -0.000001 -0.000001 2.114250 -18.830700 6.577850 6.456720 -0.000001 -0.000000 -1.118720 -29.130300 5.356330 12.994200 -0.242716 4.980390 -87.430400 -5.726000 -65.782900 5.348090 -0.000007 -0.000001 -68.334600 49.503800 30.960400 24.328600 0.000019 0.000005 12.142100 5.974580 -64.183400 22.291600 -0.000001 0.000005 -0.214097 5.595440 -11.073200 12.994500 -0.242716 -4.980390 90.062700 -0.300040 -78.166900 -5.348130 -0.000001 -0.000004 -37.943200 40.825000 -68.797900 -24.328900 0.000322 -0.000009 -2.079670 1.258050 -121.152000 -22.291500 -0.000108 -0.000004 14.938200 5.514240 -7.117910 -2.192480 -6.469440 -0.000000 -176.665000 -1.293930 -23.346400 39.081100 -0.000007 -0.000012 0.012023 -0.009886 50.559800 40.985400 -0.000006 -0.000013 11.873700 -15.576500 -59.203200 11.754300 -0.000000 0.000003 -0.006759 -0.077589 -19.735200 -2.192510 6.469440 -0.000001 -178.505000 8.371310 179.755000 -39.081100 -0.002282 -0.040193 0.042573 -0.085830 24.580400 -40.985400 0.000008 0.000006 28.206000 18.712600 -63.860600 -11.754300 -0.000006 -0.000006 -0.071625 -0.367832 -31.810400
0.000000 0.000000 0.000000 0.000000 0.000000 -0.000000 136.985000 93.672800 125.977000 97.289200 -48.864100 2.246710 15.735700 0.000005 -0.000001 120.969000 83.273400 -121.865000 8.984550 -0.406207 -0.000000 3.848050 6.943890 -2.024620 16.377300 -0.000001 -0.000001 1.443030 -18.514300 5.765110 6.456720 -0.000001 -0.000000 -1.748950 -30.013500 5.484070 12.994200 -0.242716 4.980390 -85.564500 -9.716480 -65.315500 5.348090 -0.000007 -0.000001 -75.871400 49.657100 39.793100 24.328600 0.000019 0.000005 12.825100 5.539160 -67.021600 22.291600 -0.000001 0.000005 -0.508133 5.602280 -11.478400 12.994500 -0.242716 -4.980390 90.564400 -2.733240 -78.328900 -5.348130 -0.000001 -0.000004 -40.582600 35.711100 -71.204300 -24.328900 0.000322 -0.000009 -3.134810 2.165090 -124.596000 -22.291500 -0.000108 -0.000004 15.284800 5.505160 -6.742600 -2.192480 -6.469440 -0.000000 -173.112000 -0.739514 -22.225400 39.081100 -0.000007 -0.000012 0.047936 -0.062428 37.518300 40.985400 -0.000006 -0.000013 9.401700 -9.797610 -62.644700 11.754300 -0.000000 0.000003 -0.006570 -0.075935 -19.667700 -2.192510 6.469440 -0.000001 -179.535000 13.084800 -178.290000 -39.081100 -0.002282 -0.040193 0.056858 -0.117235 24.547900 -40.985400 0.000008 0.000006 28.764300 21.739300 -62.485400 -11.754300 -0.000006 -0.000006 -0.099118 -0.442363 -35.031400
0.000000 0.000000 0.000000 0.000000 0.000000 -0.000000 135.556000 93.074500 129.845000 95.207700 -51.563600 0.681239 15.735700 0.000005 -0.000001 124.082000 83.032600 -124.585000 8.984550 -0.406207 -0.000000 3.839630 7.815350 -1.268640 16.377300 -0.000001 -0.000001 1.107010 -18.303500 4.750570 6.456720 -0.000001 -0.000000 -2.027780 -30.435000 5.971110 12.994200 -0.242716 4.980390 -83.873000 -13.399100 -65.144700 5.348090 -0.000007 -0.000001 -81.243700 48.576500 45.481500 24.328600 0.000019 0.000005 15.240900 5.849080 -69.491200 22.291600 -0.000001 0.000005 0.138379 5.622150 -12.764600 12.994500 -0.242716 -4.980390 91.067100 -4.919120 -77.745500 -5.348130 -0.000001 -0.000004 -44.444600 31.970900 -71.700300 -24.328900 0.000322 -0.000009 -5.164580 3.673570 -125.334000 -22.291500 -0.000108 -0.000004 15.821200 5.506010 -6.777500 -2.192480 -6.469440 -0.000000 -169.797000 -1.101430 -21.077800 39.081100 -0.000007 -0.000012 0.032822 -0.069796 25.185500 40.985400 -0.000006 -0.000013 7.150510 -2.948860 -66.486000 11.754300 -0.000000 0.000003 -0.007516 -0.084048 -19.998800 -2.192510 6.469440 -0.000001 179.704000 14.468000 -176.355000 -39.081100 -0.002282 -0.040193 0.084211 -0.168721 25.617400 -40.985400 0.000008 0.000006 28.934600 21.755500 -62.869500 -11.754300 -0.000006 -0.000006 -0.119133 -0.489742 -37.116700
0.000000 0.000000 0.000000 0.000000 0.000000 -0.000000 134.046000 91.676200 133.953000 94.401700 -53.710300 -0.055670 15.735700 0.000005 -0.000001 125.921000 82.974400 -126.362000 8.984550 -0.406207 -0.000000 3.677120 8.248590 -1.146800 16.377300 -0.000001 -0.000001 0.938099 -18.123900 3.862210 6.456720 -0.000001 -0.000000 -1.918460 -30.466600 6.554240 12.994200 -0.242716 4.980390 -82.576400 -16.197200 -64.962300 5.348090 -0.000007 -0.000001 -83.089200 47.209800 46.999900 24.328600 0.000019 0.000005 16.863400 5.818050 -71.509400 22.291600 -0.000001 0.000005 0.488185 5.625510 -13.007800 12.994500 -0.242716 -4.980390 91.466900 -6.471790 -77.200100 -5.348130 -0.000001 -0.000004 -48.154800 30.318300 -70.175800 -24.328900 0.000322 -0.000009 -6.942650 4.743970 -124.186000 -22.291500 -0.000108 -0.000004 17.295300 5.505850 -6.770350 -2.192480 -6.469440 -0.000000 -167.441000 -1.371370 -21.407900 39.081100 -0.000007 -0.000012 -0.009118 0.029517 17.164900 40.985400 -0.000006 -0.000013 1.063200 2.304240 -68.448900 11.754300 -0.000000 0.000003 -0.008934 -0.095503 -20.466800 -2.192510 6.469440 -0.000001 178.290000 11.490400 -174.322000 -39.081100 -0.002282 -0.040193 0.102105 -0.195735 26.782200 -40.985400 0.000008 0.000006 28.414800 20.284600 -65.329200 -11.754300 -0.000006 -0.000006 -0.133362 -0.520769 -38.500700
